<?xml version="1.0" encoding="UTF-8"?>
<svg xmlns="http://www.w3.org/2000/svg" version="1.1" viewBox="0 0 100 30">
  <defs>
    <style>
      .st0 {
        fill: none;
        stroke: #fff;
        stroke-miterlimit: 10;
      } 
    </style>
  </defs>
  <path class="st0" d="M0,0c9.1,0,17.1,7.5,25,15,8,7.5,15.9,15,25,15s17.1-7.5,25-15c8-7.5,15.9-15,25-15"/>
  <path class="st0" d="M0,15c7.9,7.5,15.9,15,25,15s17.1-7.5,25-15C58,7.5,65.9,0,75,0s17.1,7.5,25,15"/>
  <path class="st0" d="M0,30c9.1,0,17.1-7.5,25-15C33,7.5,40.9,0,50,0s17.1,7.5,25,15c8,7.5,15.9,15,25,15"/>
  <path class="st0" d="M0,15C8,7.5,15.9,0,25,0s17.1,7.5,25,15c8,7.5,15.9,15,25,15s17.1-7.5,25-15"/>
</svg>